<?xml version="1.0" encoding="utf-8"?>
<!-- Generator: Adobe Illustrator 16.0.0, SVG Export Plug-In . SVG Version: 6.00 Build 0)  -->
<!DOCTYPE svg PUBLIC "-//W3C//DTD SVG 1.1//EN" "http://www.w3.org/Graphics/SVG/1.1/DTD/svg11.dtd">
<svg version="1.1" id="Layer_1" xmlns="http://www.w3.org/2000/svg" xmlns:xlink="http://www.w3.org/1999/xlink" x="0px" y="0px"
	 width="599.971px" height="178.492px" viewBox="0 0 599.971 178.492" enable-background="new 0 0 599.971 178.492"
	 xml:space="preserve">
<text transform="matrix(1.0126 0 0 1 22.3196 147.2339)" fill="none" stroke="#FFFFFF" stroke-width="0.5" stroke-miterlimit="10" font-family="'Langdon'" font-size="173.3836">W</text>
<text transform="matrix(1.0126 0 0 1 151.8889 147.2339)" fill="none" stroke="#FFFFFF" stroke-width="0.5" stroke-miterlimit="10" font-family="'Langdon'" font-size="173.3836" letter-spacing="5.925">O</text>
<text transform="matrix(1.0126 0 0 1 238.6189 147.2339)" fill="none" stroke="#FFFFFF" stroke-width="0.5" stroke-miterlimit="10" font-family="'Langdon'" font-size="173.3836" letter-spacing="1.975">R</text>
<text transform="matrix(1.0126 0 0 1 325.1726 147.2339)" fill="none" stroke="#FFFFFF" stroke-miterlimit="10" font-family="'Langdon'" font-size="173.3836">K</text>
<text transform="matrix(1.0126 0 0 1 406.9851 147.2339)" fill="#3497D3" font-family="'Langdon'" font-size="173.3836" letter-spacing="-15.801"> </text>
<text transform="matrix(1.0126 0 0 1 421.907 147.2339)" fill="none" stroke="#3497D3" stroke-width="0.5" stroke-miterlimit="10" font-family="'Langdon'" font-size="173.3836" letter-spacing="1.975">U</text>
<text transform="matrix(1.0126 0 0 1 507.0574 147.2339)" fill="none" stroke="#3497D3" stroke-width="0.5" stroke-miterlimit="10" font-family="'Langdon'" font-size="173.3836">P</text>
<text transform="matrix(1.0126 0 0 1 18.5305 144.5562)" fill="#FFFFFF" font-family="'Langdon'" font-size="173.3836">W</text>
<text transform="matrix(1.0126 0 0 1 148.0999 144.5562)" fill="#FFFFFF" font-family="'Langdon'" font-size="173.3836" letter-spacing="5.925">O</text>
<text transform="matrix(1.0126 0 0 1 234.8279 144.5562)" fill="#FFFFFF" font-family="'Langdon'" font-size="173.3836" letter-spacing="1.975">R</text>
<text transform="matrix(1.0126 0 0 1 321.3816 144.5562)" fill="#FFFFFF" font-family="'Langdon'" font-size="173.3836">K</text>
<text transform="matrix(1.0126 0 0 1 403.1941 144.5562)" fill="#3497D3" font-family="'Langdon'" font-size="173.3836" letter-spacing="-15.801"> </text>
<text transform="matrix(1.0126 0 0 1 418.1189 144.5562)" fill="#3497D3" font-family="'Langdon'" font-size="173.3836" letter-spacing="1.975">U</text>
<text transform="matrix(1.0126 0 0 1 503.2683 144.5562)" fill="#3497D3" font-family="'Langdon'" font-size="173.3836">P</text>
</svg>
