<?xml version="1.0" encoding="utf-8"?>
<!-- Generator: Adobe Illustrator 16.0.0, SVG Export Plug-In . SVG Version: 6.00 Build 0)  -->
<!DOCTYPE svg PUBLIC "-//W3C//DTD SVG 1.1//EN" "http://www.w3.org/Graphics/SVG/1.1/DTD/svg11.dtd">
<svg version="1.1" id="Layer_1" xmlns="http://www.w3.org/2000/svg" xmlns:xlink="http://www.w3.org/1999/xlink" x="0px" y="0px"
	 width="599.971px" height="178.492px" viewBox="0 0 599.971 178.492" enable-background="new 0 0 599.971 178.492"
	 xml:space="preserve">
<text transform="matrix(1.0126 0 0 1 12.3196 -57.7666)" fill="none" stroke="#FFFFFF" stroke-width="0.5" stroke-miterlimit="10" font-family="'Langdon'" font-size="173.3836">W</text>
<text transform="matrix(1.0126 0 0 1 141.8889 -57.7666)" fill="none" stroke="#FFFFFF" stroke-width="0.5" stroke-miterlimit="10" font-family="'Langdon'" font-size="173.3836" letter-spacing="5.925">O</text>
<text transform="matrix(1.0126 0 0 1 228.6189 -57.7666)" fill="none" stroke="#FFFFFF" stroke-width="0.5" stroke-miterlimit="10" font-family="'Langdon'" font-size="173.3836" letter-spacing="1.975">R</text>
<text transform="matrix(1.0126 0 0 1 315.1726 -57.7666)" fill="none" stroke="#FFFFFF" stroke-miterlimit="10" font-family="'Langdon'" font-size="173.3836">K</text>
<text transform="matrix(1.0126 0 0 1 396.9851 -57.7666)" fill="#3497D3" font-family="'Langdon'" font-size="173.3836" letter-spacing="-15.801"> </text>
<text transform="matrix(1.0126 0 0 1 411.907 -57.7666)" fill="none" stroke="#3497D3" stroke-width="0.5" stroke-miterlimit="10" font-family="'Langdon'" font-size="173.3836" letter-spacing="1.975">U</text>
<text transform="matrix(1.0126 0 0 1 497.0574 -57.7666)" fill="none" stroke="#3497D3" stroke-width="0.5" stroke-miterlimit="10" font-family="'Langdon'" font-size="173.3836">P</text>
<text transform="matrix(1.0126 0 0 1 8.5305 144.8901)" font-family="'Langdon'" font-size="173.3836">W</text>
<text transform="matrix(1.0126 0 0 1 138.0999 144.8901)" font-family="'Langdon'" font-size="173.3836" letter-spacing="5.925">O</text>
<text transform="matrix(1.0126 0 0 1 224.8279 144.8901)" font-family="'Langdon'" font-size="173.3836" letter-spacing="1.975">R</text>
<text transform="matrix(1.0126 0 0 1 311.3816 144.8901)" font-family="'Langdon'" font-size="173.3836">K</text>
<text transform="matrix(1.0126 0 0 1 393.1941 144.8901)" fill="#3497D3" font-family="'Langdon'" font-size="173.3836" letter-spacing="-15.801"> </text>
<text transform="matrix(1.0126 0 0 1 408.1189 144.8901)" fill="#3497D3" font-family="'Langdon'" font-size="173.3836" letter-spacing="1.975">U</text>
<text transform="matrix(1.0126 0 0 1 493.2683 144.8901)" fill="#3497D3" font-family="'Langdon'" font-size="173.3836">P</text>
<text transform="matrix(1.0126 0 0 1 12.3196 147.5669)" fill="none" stroke="#000000" stroke-width="0.5" stroke-miterlimit="10" font-family="'Langdon'" font-size="173.3836">W</text>
<text transform="matrix(1.0126 0 0 1 141.8889 147.5669)" fill="none" stroke="#000000" stroke-width="0.5" stroke-miterlimit="10" font-family="'Langdon'" font-size="173.3836" letter-spacing="5.925">O</text>
<text transform="matrix(1.0126 0 0 1 228.6189 147.5669)" fill="none" stroke="#000000" stroke-width="0.5" stroke-miterlimit="10" font-family="'Langdon'" font-size="173.3836" letter-spacing="1.975">R</text>
<text transform="matrix(1.0126 0 0 1 315.1726 147.5669)" fill="none" stroke="#000000" stroke-width="0.5" stroke-miterlimit="10" font-family="'Langdon'" font-size="173.3836">K</text>
<text transform="matrix(1.0126 0 0 1 396.9851 147.5669)" fill="#3497D3" font-family="'Langdon'" font-size="173.3836" letter-spacing="-15.801"> </text>
<text transform="matrix(1.0126 0 0 1 411.907 147.5669)" fill="none" stroke="#3497D3" stroke-width="0.5" stroke-miterlimit="10" font-family="'Langdon'" font-size="173.3836" letter-spacing="1.975">U</text>
<text transform="matrix(1.0126 0 0 1 497.0574 147.5669)" fill="none" stroke="#3497D3" stroke-width="0.5" stroke-miterlimit="10" font-family="'Langdon'" font-size="173.3836">P</text>
<text transform="matrix(1.0126 0 0 1 8.5305 -60.4434)" fill="#FFFFFF" font-family="'Langdon'" font-size="173.3836">W</text>
<text transform="matrix(1.0126 0 0 1 138.0999 -60.4434)" fill="#FFFFFF" font-family="'Langdon'" font-size="173.3836" letter-spacing="5.925">O</text>
<text transform="matrix(1.0126 0 0 1 224.8279 -60.4434)" fill="#FFFFFF" font-family="'Langdon'" font-size="173.3836" letter-spacing="1.975">R</text>
<text transform="matrix(1.0126 0 0 1 311.3816 -60.4434)" fill="#FFFFFF" font-family="'Langdon'" font-size="173.3836">K</text>
<text transform="matrix(1.0126 0 0 1 393.1941 -60.4434)" fill="#3497D3" font-family="'Langdon'" font-size="173.3836" letter-spacing="-15.801"> </text>
<text transform="matrix(1.0126 0 0 1 408.1189 -60.4434)" fill="#3497D3" font-family="'Langdon'" font-size="173.3836" letter-spacing="1.975">U</text>
<text transform="matrix(1.0126 0 0 1 493.2683 -60.4434)" fill="#3497D3" font-family="'Langdon'" font-size="173.3836">P</text>
</svg>
